<?xml version="1.0" encoding="UTF-8"?>
<!DOCTYPE svg PUBLIC "-//W3C//DTD SVG 1.1//EN" "http://www.w3.org/Graphics/SVG/1.1/DTD/svg11.dtd">
<!-- Creator: CorelDRAW X7 -->
<svg xmlns="http://www.w3.org/2000/svg" xml:space="preserve" width="14.6184in" height="14.6184in" version="1.1" style="shape-rendering:geometricPrecision; text-rendering:geometricPrecision; image-rendering:optimizeQuality; fill-rule:evenodd; clip-rule:evenodd"
viewBox="0 0 14735 14735"
 xmlns:xlink="http://www.w3.org/1999/xlink">
 <defs>
  <style type="text/css">
   <![CDATA[
    .fil0 {fill:#1A2A44}
    .fil1 {fill:white}
   ]]>
  </style>
 </defs>
 <g id="Layer_x0020_1">
  <metadata id="CorelCorpID_0Corel-Layer"/>
  <rect class="fil0" width="14735" height="14735" rx="1369" ry="1369"/>
  <path class="fil1" d="M6656 3723c-3,1589 76,1610 -1385,2645 -1864,1318 -2481,2220 -2576,3739 -83,1493 374,3046 2099,3055l4666 25c1413,7 2576,-1684 2589,-3044 0,-1187 -403,-2018 -1282,-2671l-475 -356 273 -297c337,-358 703,-1291 763,-1875l-523 251c-1,3 -2,6 -2,10 -166,890 -748,1661 -1591,2089 -166,95 -819,249 -1436,356 -1555,273 -2636,819 -3550,1792 -586,638 -785,1004 -1056,1781 -28,-1935 153,-2934 1923,-4119 392,-261 1021,-748 1389,-1057 653,-558 676,-569 878,-344 297,321 891,416 1377,202 451,-202 2196,-1721 2505,-2196 237,-368 297,-1852 83,-1983 -71,-47 -427,-106 -807,-142 -879,-83 -1187,71 -2398,1235l-938 902 0 -831 0 -823 1175 0 441 -519 -3495 0 -519 0 0 519 0 4111 519 -441 0 -3670 1356 0 -3 1656zm521 4779l-519 441 0 3774 -1355 0 0 -3150 -519 441 0 2703c-2037,-393 -1101,-2049 -71,-3079 1713,-1713 2955,-1295 4487,-1840 356,-154 689,-285 736,-296 36,0 309,166 582,368l0 0c653,510 973,1151 1033,2053 85,1158 -783,2803 -2093,2802l-2281 -1 0 -4216zm3638 -6384c154,95 201,356 178,914 -12,273 -190,511 -807,1092 -772,713 -1093,867 -1437,641 -130,-71 -12,-237 463,-676 1009,-938 962,-891 807,-1069 -213,-261 -320,-213 -1021,546 -356,392 -700,713 -747,713 -48,0 -119,-143 -155,-333 -59,-261 24,-415 487,-902 309,-309 724,-676 914,-795 356,-226 1068,-297 1318,-131l0 0zm-3087 2042c12,427 321,807 819,1009l356 154 -320 155c-617,273 -1531,-440 -1318,-1045 60,-166 380,-629 440,-629 11,0 11,166 23,356l0 0z"/>
 </g>
</svg>
