<?xml version="1.0" encoding="UTF-8"?>
<!DOCTYPE svg PUBLIC "-//W3C//DTD SVG 1.1//EN" "http://www.w3.org/Graphics/SVG/1.1/DTD/svg11.dtd">
<!-- Creator: CorelDRAW X7 -->
<svg xmlns="http://www.w3.org/2000/svg" xml:space="preserve" width="2.26478in" height="2.26478in" version="1.1" style="shape-rendering:geometricPrecision; text-rendering:geometricPrecision; image-rendering:optimizeQuality; fill-rule:evenodd; clip-rule:evenodd"
viewBox="0 0 3456 3456"
 xmlns:xlink="http://www.w3.org/1999/xlink">
 <defs>
  <style type="text/css">
   <![CDATA[
    .fil0 {fill:#2B5FBF}
   ]]>
  </style>
 </defs>
 <g id="Layer_x0020_1">
  <metadata id="CorelCorpID_0Corel-Layer"/>
  <path class="fil0" d="M284 0l2888 0c156,0 284,128 284,284l0 2888c0,156 -128,284 -284,284l-2888 0c-156,0 -284,-128 -284,-284l0 -2888c0,-156 128,-284 284,-284zm1280 890c0,366 18,370 -318,608 -428,303 -570,510 -592,859 -19,343 86,700 482,702l1073 6c324,2 592,-387 595,-699 0,-273 -93,-464 -295,-614l-109 -82 63 -68c77,-82 161,-297 175,-431l-120 58c0,0 -1,1 -1,2 -38,204 -172,382 -365,480 -38,22 -188,57 -330,82 -358,63 -606,188 -816,412 -135,146 -180,230 -243,409 -6,-445 36,-674 442,-947 90,-60 235,-172 319,-242 150,-129 156,-131 202,-80 68,74 205,96 317,47 103,-47 504,-396 575,-505 55,-84 68,-425 19,-455 -16,-11 -98,-25 -185,-33 -202,-19 -273,16 -551,284l-216 207 0 -191 0 -189 270 0 101 -119 -803 0 -119 0 0 119 0 945 119 -102 0 -843 312 0 -1 380zm120 1099l-119 101 0 867 -312 0 0 -724 -119 102 0 621c-468,-91 -253,-471 -16,-708 394,-393 679,-297 1031,-422 82,-36 158,-66 169,-69 8,0 71,39 134,85l0 0c150,117 223,264 237,472 20,266 -180,644 -481,644l-524 -1 0 -968zm836 -1467c35,21 46,81 41,210 -3,62 -44,117 -186,251 -177,163 -251,199 -330,147 -30,-16 -2,-55 107,-156 232,-215 221,-204 185,-245 -49,-60 -73,-49 -234,125 -82,90 -161,164 -172,164 -11,0 -27,-33 -36,-76 -13,-60 6,-96 112,-208 71,-70 167,-155 210,-182 82,-52 246,-69 303,-30l0 0zm-709 469c3,98 73,185 188,232l82 35 -74 36c-142,62 -352,-101 -303,-240 14,-39 88,-145 101,-145 3,0 3,38 6,82l0 0z"/>
 </g>
</svg>
